<svg width="512" height="128" viewBox="0 0 512 128" fill="none" xmlns="http://www.w3.org/2000/svg" role="img" aria-labelledby="title desc">
  <title id="title">Omthentic logo lockup</title>
  <desc id="desc">Icon plus wordmark set in a blue–teal gradient</desc>
  <defs>
    <linearGradient id="omGrad" x1="0" y1="0" x2="512" y2="128" gradientUnits="userSpaceOnUse">
      <stop offset="0%" stop-color="#2D6FFF"/>
      <stop offset="60%" stop-color="#19B9D0"/>
      <stop offset="100%" stop-color="#12D6C0"/>
    </linearGradient>
  </defs>
  <!-- Icon -->
  <g transform="translate(8,8)">
    <path d="M56 4c30.93 0 56 23.36 56 52.18 0 13.9-6.01 25.81-15.8 34.85-2.4 2.21-3.59 5.46-3.09 8.67l1.67 10.62c0.86 5.77-5.06 10.12-10.3 7.72l-21-9.77c-2.77-1.29-5.94-1.26-8.64.07-3.69 1.78-7.83 2.74-12.27 2.74C11.93 111.1-13.14 87.75-13.14 58.92-13.14 27.36 25.07 4 56 4z" stroke="url(#omGrad)" stroke-width="12" fill="none" stroke-linecap="round"/>
    <path d="M72 60c0-12.15-9.19-22-20.52-22S31 47.85 31 60c0 8.85 5.25 16.49 12.8 20 3.1 1.43 4.83 4.82 4.24 8.15l-.77 4.43" stroke="url(#omGrad)" stroke-width="12" fill="none" stroke-linecap="round"/>
  </g>
  <!-- Wordmark (system font fallback shapes for portability) -->
  <g transform="translate(120,28)" fill="url(#omGrad)">
    <text x="0" y="62" font-family="Inter, system-ui, -apple-system, Segoe UI, Roboto, Helvetica, Arial, sans-serif" font-weight="800" font-size="72">mthentic</text>
  </g>
</svg>

