<svg width="256" height="256" viewBox="0 0 256 256" fill="none" xmlns="http://www.w3.org/2000/svg" role="img" aria-labelledby="title desc">
  <title id="title">Omthentic spiral speech icon</title>
  <desc id="desc">Rounded spiral speech bubble mark in a blue–teal gradient</desc>
  <defs>
    <linearGradient id="omGrad" x1="0" y1="0" x2="256" y2="256" gradientUnits="userSpaceOnUse">
      <stop offset="0%" stop-color="#2D6FFF"/>
      <stop offset="60%" stop-color="#19B9D0"/>
      <stop offset="100%" stop-color="#12D6C0"/>
    </linearGradient>
    <filter id="soft" x="-20%" y="-20%" width="140%" height="140%" filterUnits="objectBoundingBox" color-interpolation-filters="sRGB">
      <feGaussianBlur stdDeviation="0.5"/>
    </filter>
  </defs>
  <!-- Outer mark -->
  <path d="M128 28c55.23 0 100 41.67 100 93.07 0 24.79-10.73 45.98-28.18 62.07-3.37 3.11-5.01 7.7-4.31 12.23l2.33 14.9c1.11 7.1-6.23 12.45-12.66 9.49l-28.9-13.45c-3.86-1.8-8.29-1.76-12.08.1-5.16 2.49-10.96 3.83-17.12 3.83-55.23 0-100-41.67-100-93.07C27.08 69.67 72.77 28 128 28z" stroke="url(#omGrad)" stroke-width="16" fill="none" stroke-linecap="round"/>
  <!-- Inner spiral -->
  <path d="M152 126c0-16.57-12.54-30-28-30s-28 13.43-28 30c0 12.15 7.17 22.62 17.42 27.39 4.22 1.95 6.58 6.6 5.79 11.17l-1.04 6.07" stroke="url(#omGrad)" stroke-width="16" fill="none" stroke-linecap="round"/>
</svg>

